<?xml version="1.0" standalone="no"?>
<!DOCTYPE svg PUBLIC "-//W3C//DTD SVG 20010904//EN"
 "http://www.w3.org/TR/2001/REC-SVG-20010904/DTD/svg10.dtd">
<svg version="1.0" xmlns="http://www.w3.org/2000/svg"
 width="398.000000pt" height="398.000000pt" viewBox="0 0 398.000000 398.000000"
 preserveAspectRatio="xMidYMid meet">
<metadata>
Created by potrace 1.11, written by Peter Selinger 2001-2013
</metadata>
<g transform="translate(0.000000,398.000000) scale(0.100000,-0.100000)"
fill="#000000" stroke="none">
<path d="M2371 3215 c-217 -57 -420 -200 -551 -387 -54 -77 -82 -153 -120
-323 -36 -165 -59 -233 -126 -375 -90 -191 -125 -335 -143 -591 -10 -134 -35
-227 -90 -337 -42 -84 -63 -156 -70 -241 l-7 -76 -49 98 -50 99 -40 -7 c-50
-8 -127 -43 -182 -83 l-42 -31 28 -83 c64 -187 134 -323 263 -515 59 -88 74
-104 112 -118 58 -22 98 -11 210 60 49 30 90 55 92 55 2 0 1 -13 -2 -30 -8
-37 1 -38 67 -4 28 14 54 22 57 19 4 -3 8 -50 9 -103 2 -53 5 -130 9 -169 l6
-73 62 0 61 0 23 88 c25 98 57 282 67 387 8 80 -15 311 -46 449 -15 71 -16 92
-6 98 6 5 51 20 100 35 61 19 87 31 87 42 0 9 7 29 15 45 8 15 15 31 15 33 0
10 -96 -9 -159 -32 -36 -13 -67 -23 -69 -21 -1 2 5 11 14 20 18 19 18 18 -15
36 l-24 12 24 14 c13 7 41 13 62 14 36 0 50 13 25 23 -7 2 -2 8 12 11 17 5 44
-1 85 -19 33 -15 84 -29 113 -32 28 -3 52 -8 52 -11 0 -3 -8 -29 -17 -59 -13
-42 -14 -56 -4 -66 16 -16 26 0 48 73 l17 55 86 17 c47 10 93 20 102 23 14 6
16 -5 11 -95 l-6 -102 21 11 c18 10 22 21 22 64 0 71 9 81 56 73 22 -4 65 -10
97 -13 31 -2 57 -7 57 -9 0 -3 -7 -18 -15 -34 l-15 -28 -52 13 c-29 8 -54 13
-56 11 -2 -2 4 -18 13 -36 9 -17 14 -37 12 -43 -3 -7 -28 -21 -56 -32 -48 -18
-52 -22 -50 -50 4 -66 1 -70 -98 -138 -96 -64 -186 -145 -290 -258 -73 -79
-111 -199 -133 -424 -5 -55 -12 -110 -16 -123 l-6 -22 297 2 298 3 20 52 c25
68 51 72 67 11 6 -24 13 -49 15 -55 3 -10 45 -13 161 -13 l156 0 -6 53 c-14
132 -18 187 -12 187 4 0 17 -6 29 -14 12 -8 32 -17 44 -20 21 -7 21 -5 12 26
-12 44 -12 130 2 165 5 15 25 46 43 68 18 22 44 60 59 85 22 38 27 41 33 25
11 -31 51 -82 81 -103 l28 -20 0 97 c0 108 18 163 76 229 43 49 75 123 90 207
15 89 6 276 -21 410 -48 238 -47 505 1 920 22 185 19 253 -13 349 -35 107
-105 196 -216 278 -31 23 -91 74 -132 114 -87 83 -145 115 -273 150 -69 19
-124 26 -222 30 -116 4 -140 2 -224 -21z m41 -491 c68 -9 162 -14 210 -12 l87
4 12 -28 c6 -15 36 -60 66 -100 105 -140 153 -263 153 -394 l0 -72 -46 17
c-40 14 -50 23 -74 72 -25 49 -35 58 -87 81 -70 32 -146 48 -218 48 -43 0 -59
-5 -85 -26 -20 -18 -30 -34 -28 -48 3 -18 9 -21 43 -20 22 1 59 5 82 9 74 13
259 -42 232 -69 -3 -4 -46 1 -95 10 -51 10 -149 18 -231 19 -83 1 -148 7 -155
13 -7 6 -36 20 -63 31 -33 13 -43 20 -27 20 27 1 30 36 7 86 -14 28 -25 35
-83 50 -96 26 -204 25 -242 -4 -24 -17 -30 -18 -30 -6 0 36 63 207 87 235 28
34 103 76 160 89 61 14 192 12 325 -5z m-309 -397 c53 -31 72 -53 36 -42 -12
4 -76 17 -141 29 -97 18 -116 24 -106 35 9 9 35 12 89 9 60 -4 86 -10 122 -31z
m-5 -79 c35 -11 75 -30 88 -43 35 -35 32 -95 -6 -173 -27 -53 -37 -63 -75 -78
-87 -33 -223 -4 -268 57 -21 29 -29 121 -12 138 7 6 29 -3 67 -29 67 -45 132
-61 211 -53 56 6 57 6 57 38 0 45 -37 96 -90 123 -45 23 -68 24 -189 10 -13
-2 -26 3 -28 10 -13 36 127 37 245 0z m-134 -55 c-4 -10 -8 -30 -8 -45 -1 -16
-3 -28 -5 -28 -10 0 -81 53 -81 61 0 10 48 27 79 28 18 1 22 -2 15 -16z m96
-18 c0 -8 -4 -15 -9 -15 -13 0 -22 16 -14 24 11 11 23 6 23 -9z m632 -31 c76
-19 113 -40 126 -69 11 -23 0 -45 -22 -45 -6 0 -5 5 2 12 18 18 15 27 -8 21
-17 -4 -19 -2 -13 13 6 16 5 17 -9 6 -13 -11 -24 -8 -63 17 -101 64 -215 63
-282 -2 -50 -48 -44 -67 30 -97 63 -25 104 -28 284 -19 34 2 65 0 69 -3 13
-13 -27 -97 -59 -124 -29 -25 -36 -26 -117 -22 -69 3 -96 10 -144 34 -85 42
-101 68 -101 164 0 69 3 81 24 104 13 14 33 27 45 30 37 8 174 -3 238 -20z
m-569 -24 c4 -16 0 -20 -19 -20 -21 0 -23 2 -12 25 12 27 23 26 31 -5z m417
-29 c-5 -11 -10 -33 -10 -50 0 -17 -3 -31 -7 -31 -16 0 -93 33 -93 40 0 20 66
58 103 59 14 1 16 -3 7 -18z m-226 -17 c17 -16 21 -31 31 -107 12 -90 93 -151
235 -177 37 -7 88 -9 120 -5 66 8 108 46 136 126 19 53 53 89 84 89 21 0 17
-26 -23 -137 -34 -94 -54 -202 -63 -342 l-7 -113 -51 -23 c-28 -12 -127 -48
-221 -81 -169 -58 -171 -59 -286 -59 -109 0 -119 2 -175 30 -78 40 -125 110
-194 289 -29 75 -57 133 -61 130 -5 -3 -9 6 -9 19 0 13 -11 55 -24 94 -13 39
-27 106 -31 149 l-6 79 23 -39 c15 -25 39 -48 68 -62 61 -31 164 -48 218 -36
45 11 49 7 27 -22 -22 -30 -18 -52 14 -79 32 -27 90 -42 122 -32 34 11 16 27
-33 29 -43 2 -88 26 -88 47 0 4 25 47 55 95 30 49 55 92 55 98 0 14 41 56 56
56 7 0 20 -7 28 -16z m334 -1 c-4 -22 -22 -20 -26 1 -2 10 3 16 13 16 10 0 15
-7 13 -17z m66 -32 c16 -17 16 -19 -4 -24 -16 -4 -20 0 -20 19 0 29 2 29 24 5z"/>
<path d="M2061 1652 c-18 -12 -26 -13 -29 -4 -7 22 -42 -6 -42 -34 0 -14 4
-23 10 -19 5 3 14 -14 20 -37 24 -99 56 -126 156 -135 80 -6 109 4 174 63 22
20 47 37 57 38 24 4 29 49 8 66 -14 11 -18 11 -25 1 -6 -11 -20 -7 -63 18 -30
17 -68 31 -84 31 -17 0 -50 7 -73 15 -54 19 -79 18 -109 -3z m73 -66 c34 -8
100 -20 148 -26 55 -8 86 -16 82 -22 -12 -20 -276 21 -311 48 -17 13 -17 13 1
14 11 0 47 -6 80 -14z m71 -55 c84 -15 95 -19 69 -25 -38 -9 -156 11 -181 30
-24 18 -14 17 112 -5z"/>
<path d="M820 1764 c-11 -12 -11 -32 3 -107 9 -50 14 -93 12 -95 -2 -2 -28 34
-58 80 -62 96 -78 112 -106 103 -43 -13 -36 -52 29 -165 l32 -55 -59 58 c-59
58 -79 67 -101 45 -22 -22 -12 -45 59 -137 38 -50 68 -91 66 -91 -3 0 -34 14
-71 31 -70 33 -99 34 -104 5 -5 -24 30 -60 97 -97 79 -45 91 -56 162 -143 34
-43 68 -80 74 -82 7 -3 20 -23 30 -44 15 -33 20 -38 36 -29 30 16 23 31 -42
94 -34 33 -81 85 -105 116 -30 38 -68 70 -123 102 -68 40 -115 77 -98 77 2 0
49 -20 102 -45 64 -30 102 -42 108 -36 6 6 -23 50 -82 125 -85 108 -102 135
-83 136 4 1 51 -46 104 -102 72 -77 100 -100 108 -92 9 9 -8 46 -65 147 -42
75 -74 141 -70 147 10 17 20 5 95 -110 112 -171 128 -172 94 -8 -13 62 -23
123 -24 136 0 45 20 20 40 -50 12 -40 30 -103 40 -139 11 -36 33 -84 49 -106
l30 -41 -26 -23 c-28 -27 -53 -70 -53 -94 0 -24 17 -18 24 9 8 34 50 81 85 95
18 8 39 31 55 61 30 56 70 92 92 83 13 -5 12 -9 -4 -27 -31 -34 -41 -60 -52
-138 -7 -49 -22 -96 -47 -144 -31 -59 -35 -75 -25 -87 7 -8 21 -13 32 -10 15
4 17 9 8 28 -8 18 -4 32 20 76 21 37 34 78 41 132 6 43 11 80 11 81 0 2 13 20
30 41 37 46 28 75 -23 75 -41 -1 -58 -15 -94 -75 -16 -28 -37 -51 -45 -53 -21
-4 -65 70 -85 141 -40 144 -55 187 -69 201 -20 20 -38 20 -54 0z"/>
<path d="M1931 18 c1 -16 3 -18 6 -6 2 9 12 19 21 21 12 3 10 5 -5 6 -18 1
-23 -4 -22 -21z"/>
</g>
</svg>
