<svg height="512" width="512" fill="#026670"
  xmlns="http://www.w3.org/2000/svg">
  <path d="M87.062 406.787H7.5a7.5 7.5 0 00-7.5 7.5v77.495a7.5 7.5 0 007.5 7.5h79.562a7.5 7.5 0 007.5-7.5v-77.495a7.5 7.5 0 00-7.5-7.5zm-72.062 15h64.562v23.748H15zm64.562 62.495H15v-23.748h64.562zM214.113 368.039h-28.584c-4.143 0-7.5 3.358-7.5 7.5s3.357 7.5 7.5 7.5h21.084v23.748H142.05v-23.748h7.978c4.143 0 7.5-3.358 7.5-7.5s-3.357-7.5-7.5-7.5H134.55a7.5 7.5 0 00-7.5 7.5v116.243a7.5 7.5 0 007.5 7.5h79.563a7.5 7.5 0 007.5-7.5V375.539c0-4.143-3.357-7.5-7.5-7.5zm-7.5 53.748v23.748H142.05v-23.748zm0 62.495H142.05v-23.748h64.563zM349.003 329.291h-4.818v-31.248a7.5 7.5 0 00-7.5-7.5h-79.562a7.5 7.5 0 00-7.5 7.5v38.748a7.5 7.5 0 007.5 7.5h4.818v23.748c-4.122.045-7.839 3.191-7.839 7.5v116.243a7.5 7.5 0 007.5 7.5h79.562a7.5 7.5 0 007.5-7.5V383.039c4.122-.045 7.839-3.191 7.839-7.5v-38.748a7.5 7.5 0 00-7.5-7.5zm-84.38-23.748h64.562v23.748h-64.562zm12.318 38.748h64.562v23.748h-64.562zm56.723 101.243h-64.562v-23.748h64.562zm0 38.748h-64.562v-23.748h64.562zm0-77.495h-64.562v-23.748h64.562zM477.174 290.543h-7.058v-23.748h5.938a7.5 7.5 0 007.5-7.5v-38.748a7.5 7.5 0 00-7.5-7.5h-79.563a7.5 7.5 0 00-7.5 7.5v31.248h-5.938a7.5 7.5 0 00-7.5 7.5v38.748a7.5 7.5 0 007.5 7.5h7.058v23.748c-4.505-.35-8.959 2.588-8.959 7.5v154.991a7.5 7.5 0 007.5 7.5h79.563a7.5 7.5 0 007.5-7.5V344.147c4.483.884 8.958-2.767 8.958-7.356v-38.748a7.499 7.499 0 00-7.499-7.5zm-22.058 0h-64.562v-23.748h64.562zm-51.124-62.495h64.563v23.748h-64.563zm1.12 77.495h64.562v23.748h-16.199c-4.143 0-7.5 3.358-7.5 7.5s3.357 7.5 7.5 7.5h7.241v23.748h-64.563v-23.748h22.894c4.143 0 7.5-3.358 7.5-7.5s-3.357-7.5-7.5-7.5h-13.935zm55.604 101.244h-64.563v-23.748h64.563zm-64.563 15h64.563v23.748h-64.563zm64.563 62.495h-64.563v-23.748h64.563zM425.94 12.718c-47.454 0-86.061 38.606-86.061 86.06 0 15.134 3.986 30.021 11.527 43.051a7.5 7.5 0 0010.248 2.734 7.499 7.499 0 002.734-10.248c-6.222-10.75-9.51-23.038-9.51-35.537 0-39.183 31.878-71.06 71.061-71.06S497 59.596 497 98.778s-31.877 71.06-71.06 71.06c-14.241 0-27.979-4.195-39.726-12.131a7.5 7.5 0 10-8.396 12.43c14.236 9.618 30.876 14.702 48.122 14.702 47.453 0 86.06-38.606 86.06-86.06s-38.606-86.061-86.06-86.061zM82.611 333.08a7.478 7.478 0 005.304-2.197L255.437 163.36l-4.593 32.067c-1.359 9.476 13.474 11.727 14.848 2.127l7.784-54.353c.704-4.915-3.726-9.271-8.628-8.468l-54.212 7.765a7.498 7.498 0 00-6.36 8.488c.587 4.101 4.4 6.953 8.487 6.361l32.066-4.593L77.308 320.276a7.5 7.5 0 000 10.606 7.475 7.475 0 005.303 2.198z"/>
  <path d="M405.946 120.934a7.5 7.5 0 10-11.115 10.073c6.01 6.632 14.442 11.26 23.609 13.162v7.716c0 4.142 3.357 7.5 7.5 7.5s7.5-3.358 7.5-7.5v-7.211c12.734-2.105 23.118-11.195 25.186-22.775 3.01-16.866-11.57-26.242-25.186-31.455V67.465c6.205 1.765 10.532 5.233 10.654 5.332a7.5 7.5 0 009.622-11.508c-.486-.408-8.615-7.111-20.276-9.22v-6.397c0-4.142-3.357-7.5-7.5-7.5s-7.5 3.358-7.5 7.5v6.679c-10.423 2.366-19.337 10.162-20.905 21.086-2.188 15.245 8.876 22.238 20.905 27.185v28.085c-4.878-1.52-9.255-4.198-12.494-7.773zm37.913-1.673c-.735 4.119-4.632 8.337-10.419 10.06v-22.828c7.535 3.125 11.32 7.728 10.419 12.768zm-28.432-36.212c-2.339-1.738-3.472-4.497-3.044-7.48.467-3.252 2.692-5.951 6.058-7.501v16.286a324.994 324.994 0 01-3.014-1.305z"/>
</svg>