<svg id="Capa_1" enable-background="new 0 0 512.004 512.004" height="512" viewBox="0 0 512.004 512.004" width="512" xmlns="http://www.w3.org/2000/svg"><g><path d="m46.618 50.407c-8.504 0-15.422 6.919-15.422 15.423v281.173c0 6.422 5.225 11.646 11.646 11.646h426.318c6.422 0 11.646-5.225 11.646-11.646 0-10.556 0-268.176 0-281.173 0-8.504-6.918-15.423-15.422-15.423-15.567 0-401.514 0-418.766 0zm144.448 15h33.29v32.155c0 9.179-7.467 16.646-16.645 16.646-9.179 0-16.646-7.467-16.646-16.646v-32.155zm-48.29 0h33.29v32.155c0 9.179-7.467 16.646-16.646 16.646-9.178 0-16.645-7.467-16.645-16.646v-32.155zm-48.29 0h33.29v32.155c0 9.179-7.467 16.646-16.646 16.646-9.178 0-16.645-7.467-16.645-16.646v-32.155zm-48.29.423c0-.233.189-.423.422-.423h32.868v32.155c0 9.179-7.467 16.646-16.646 16.646-9.178 0-16.645-7.467-16.645-16.646v-31.732zm386.322-.423h32.868c.232 0 .422.189.422.423v31.732c0 9.179-7.467 16.646-16.646 16.646-9.178 0-16.645-7.467-16.645-16.646v-32.155zm-48.29 0h33.29v32.155c0 9.179-7.467 16.646-16.646 16.646-9.178 0-16.645-7.467-16.645-16.646v-32.155zm-48.29 0h33.29v32.155c0 9.179-7.467 16.646-16.646 16.646-9.178 0-16.645-7.467-16.645-16.646v-32.155zm-48.292 0h33.291v32.155c0 9.179-7.467 16.646-16.646 16.646s-16.646-7.467-16.646-16.646v-32.155zm-48.29 0h33.29v32.155c0 9.179-7.467 16.646-16.645 16.646-9.179 0-16.646-7.467-16.646-16.646v-32.155zm40.79 52.59c12.645 14.917 35.618 14.95 48.291 0 12.649 14.912 35.608 14.961 48.29 0 12.601 14.882 35.554 14.989 48.29 0 10.202 12.027 27.546 14.68 40.79 6.471v219.182h-419.611v-219.182c13.206 8.194 30.586 5.567 40.79-6.471 12.687 14.984 35.679 14.877 48.29 0 12.66 14.935 35.621 14.936 48.29 0 12.687 14.967 35.676 14.897 48.29 0 12.749 15.04 35.734 14.83 48.29 0z"/><path d="m151.781 270.545h-41.255c-4.143 0-7.5 3.357-7.5 7.5s3.357 7.5 7.5 7.5h41.255c4.143 0 7.5-3.357 7.5-7.5s-3.357-7.5-7.5-7.5z"/><path d="m151.781 243.043h-41.255c-4.143 0-7.5 3.357-7.5 7.5s3.357 7.5 7.5 7.5h41.255c4.143 0 7.5-3.357 7.5-7.5s-3.357-7.5-7.5-7.5z"/><path d="m151.781 215.541h-41.255c-4.143 0-7.5 3.357-7.5 7.5s3.357 7.5 7.5 7.5h41.255c4.143 0 7.5-3.357 7.5-7.5s-3.357-7.5-7.5-7.5z"/><path d="m290.095 255.72c-4.143 0-7.5 3.357-7.5 7.5s3.357 7.5 7.5 7.5h13.72v5.499c0 4.143 3.357 7.5 7.5 7.5s7.5-3.357 7.5-7.5v-5.516c11.76-.352 21.22-10.02 21.22-21.864s-9.46-21.513-21.22-21.865v-13.78h13.72c4.143 0 7.5-3.357 7.5-7.5s-3.357-7.5-7.5-7.5h-13.72v-5.498c0-4.143-3.357-7.5-7.5-7.5s-7.5 3.357-7.5 7.5v5.515c-11.76.352-21.22 10.021-21.22 21.865s9.46 21.512 21.22 21.864v13.78zm28.719-13.73c3.485.334 6.22 3.277 6.22 6.848s-2.735 6.513-6.22 6.847zm-21.219-21.914c0-3.572 2.735-6.514 6.22-6.848v13.696c-3.485-.335-6.22-3.277-6.22-6.848z"/><path d="m311.314 309.776c5.876 0 11.589-.698 17.081-1.977 47.34 11.046 92.484-25.022 92.484-73.342 0-48.234-45.047-84.402-92.484-73.341-5.492-1.279-11.205-1.977-17.081-1.977-41.531 0-75.319 33.788-75.319 75.318 0 41.531 33.788 75.319 75.319 75.319zm94.565-75.319c0 28.935-20.478 53.176-47.702 58.992 37.934-30.176 37.945-87.8.001-117.983 27.223 5.816 47.701 30.057 47.701 58.991zm-94.565-60.318c33.658 0 60.525 27.608 60.313 60.545-.121 33.187-27.164 60.092-60.313 60.092-33.26 0-60.319-27.06-60.319-60.319s27.06-60.318 60.319-60.318z"/><path d="m174.403 149.707h-86.5c-9.187 0-16.663 7.474-16.663 16.664v136.174c0 9.188 7.475 16.662 16.663 16.662h86.5c9.188 0 16.663-7.475 16.663-16.662v-29.043c0-4.143-3.357-7.5-7.5-7.5s-7.5 3.357-7.5 7.5v29.043c0 .916-.746 1.662-1.663 1.662h-86.5c-.917 0-1.663-.746-1.663-1.662v-102.837h89.826v38.794c0 4.143 3.357 7.5 7.5 7.5s7.5-3.357 7.5-7.5c0-7.698 0-64.628 0-72.131 0-9.188-7.473-16.664-16.663-16.664zm1.663 35.001h-89.826v-18.337c0-.917.746-1.663 1.663-1.663h86.5c.917 0 1.663.746 1.663 1.663z"/><path d="m475.684 19.212h-202.182c-4.143 0-7.5 3.357-7.5 7.5s3.357 7.5 7.5 7.5h202.182c11.756 0 21.32 9.563 21.32 21.319v297.994c0 11.756-9.564 21.32-21.32 21.32-11.445 0-427.458 0-439.364 0-11.756 0-21.319-9.564-21.319-21.32v-297.994c0-11.756 9.563-21.319 21.319-21.319h202.183c4.143 0 7.5-3.357 7.5-7.5s-3.357-7.5-7.5-7.5h-202.184c-20.026 0-36.319 16.293-36.319 36.319v297.994c0 20.027 16.293 36.32 36.319 36.32h165.64v21.777c0 9.138-4.397 17.747-11.478 22.47l-18.745 12.504h-14.903c-9.649 0-17.499 7.85-17.499 17.499v11.197c0 9.649 7.85 17.499 17.499 17.499h198.335c9.649 0 17.5-7.85 17.5-17.499v-11.197c0-9.649-7.851-17.499-17.5-17.499h-14.902l-18.745-12.504c-7.08-4.723-11.479-13.332-11.479-22.47v-21.777h165.64c20.027 0 36.32-16.293 36.32-36.32v-297.994c.002-20.026-16.291-36.319-36.318-36.319zm-120.515 442.385c1.379 0 2.5 1.121 2.5 2.499v11.197c0 1.378-1.121 2.499-2.5 2.499h-198.335c-1.378 0-2.499-1.121-2.499-2.499v-11.197c0-1.378 1.121-2.499 2.499-2.499zm-41.971-15.026.038.025h-114.468l.038-.025c11.367-7.582 18.153-20.646 18.153-34.948v-21.777h78.085v21.777c0 14.301 6.787 27.366 18.154 34.948z"/></g></svg>