<?xml version="1.0" encoding="iso-8859-1"?>
<!-- Generator: Adobe Illustrator 19.0.0, SVG Export Plug-In . SVG Version: 6.00 Build 0)  -->
<svg version="1.1" id="Capa_1" xmlns="http://www.w3.org/2000/svg" xmlns:xlink="http://www.w3.org/1999/xlink" x="0px" y="0px"
	 viewBox="0 0 479.865 479.865" style="enable-background:new 0 0 479.865 479.865;" xml:space="preserve">
<g>
	<g>
		<path d="M456.003,207.932h-32c-4.418,0-8,3.582-8,8v224c0,4.418,3.582,8,8,8h32c4.418,0,8-3.582,8-8v-224
			C464.003,211.514,460.421,207.932,456.003,207.932z M448.003,431.932h-16v-208h16V431.932z"/>
	</g>
</g>
<g>
	<g>
		<path d="M392.003,247.932h-32c-4.418,0-8,3.582-8,8v184c0,4.418,3.582,8,8,8h32c4.418,0,8-3.582,8-8v-184
			C400.003,251.514,396.421,247.932,392.003,247.932z M384.003,431.932h-16v-168h16V431.932z"/>
	</g>
</g>
<g>
	<g>
		<path d="M328.002,271.932c-0.655,0-1.308,0.081-1.944,0.24l-32,8c-3.559,0.892-6.056,4.091-6.056,7.76v152c0,4.418,3.582,8,8,8h32
			c4.418,0,8-3.582,8-8v-160C336.003,275.514,332.421,271.932,328.002,271.932z M320.003,431.932h-16V294.18l16-4V431.932z"/>
	</g>
</g>
<g>
	<g>
		<path d="M265.947,280.172l-32-8c-4.286-1.074-8.631,1.53-9.704,5.816c-0.159,0.636-0.24,1.288-0.24,1.944v160c0,4.418,3.582,8,8,8
			h32c4.418,0,8-3.582,8-8v-152C272.003,284.263,269.506,281.064,265.947,280.172z M256.003,431.932h-16V290.18l16,4V431.932z"/>
	</g>
</g>
<g>
	<g>
		<path d="M203.067,288.54c-2.99-1.239-6.432-0.553-8.72,1.736l-32,32c-1.5,1.5-2.344,3.534-2.344,5.656v112c0,4.418,3.582,8,8,8h32
			c4.418,0,8-3.582,8-8v-144C208.003,292.697,206.055,289.779,203.067,288.54z M192.003,431.932h-16V331.244l16-16V431.932z"/>
	</g>
</g>
<g>
	<g>
		<path d="M139.067,352.54c-2.99-1.239-6.432-0.553-8.72,1.736l-32,32c-1.5,1.5-2.344,3.534-2.344,5.656v48c0,4.418,3.582,8,8,8h32
			c4.418,0,8-3.582,8-8v-80C144.003,356.697,142.055,353.779,139.067,352.54z M128.003,431.932h-16v-36.688l16-16V431.932z"/>
	</g>
</g>
<g>
	<g>
		<path d="M77.659,402.276l-32-32c-3.125-3.124-8.19-3.123-11.314,0.002c-1.499,1.5-2.342,3.534-2.342,5.654v64c0,4.418,3.582,8,8,8
			h32c4.418,0,8-3.582,8-8v-32C80.002,405.811,79.159,403.776,77.659,402.276z M64.003,431.932h-16v-36.688l16,16V431.932z"/>
	</g>
</g>
<g>
	<g>
		<path d="M72.003,215.932h-32c-4.418,0-8,3.582-8,8v88c-0.001,3.235,1.947,6.153,4.936,7.392c2.99,1.239,6.432,0.553,8.72-1.736
			l32-32c1.5-1.5,2.344-3.534,2.344-5.656v-56C80.003,219.514,76.421,215.932,72.003,215.932z M64.003,276.62l-16,16v-60.688h16
			V276.62z"/>
	</g>
</g>
<g>
	<g>
		<path d="M128.003,175.932h-32c-4.418,0-8,3.582-8,8v72c0,4.418,3.582,8,8,8c2.122,0,4.156-0.844,5.656-2.344l32-32
			c1.5-1.5,2.344-3.534,2.344-5.656v-40C136.003,179.514,132.421,175.932,128.003,175.932z M120.003,220.62l-16,16v-44.688h16
			V220.62z"/>
	</g>
</g>
<g>
	<g>
		<path d="M477.619,154.316l-54.216-54.296c0.379-1.33,0.581-2.705,0.6-4.088c0-8.837-7.163-16-16-16s-16,7.163-16,16
			c0.019,1.383,0.221,2.758,0.6,4.088l-15,14.984c-20.3-58.332-84.044-89.163-142.375-68.863
			c-19.511,6.79-36.759,18.851-49.833,34.846l-41.6-31.2c0.106-0.614,0.176-1.234,0.208-1.856c0-8.837-7.163-16-16-16
			s-16,7.163-16,16c0.018,0.805,0.098,1.607,0.24,2.4L3.003,137.684c-3.451,2.761-4.009,7.797-1.248,11.248
			s7.797,4.009,11.248,1.248l109.208-87.376c3.885,1.557,8.23,1.5,12.072-0.16l41.976,31.48
			c-25.323,41.541-20.702,94.722,11.408,131.272c-0.468,0.248-0.911,0.543-1.32,0.88l-22.344,22.344l-6.344-6.344
			c-3.124-3.123-8.188-3.123-11.312,0l-96,96c-3.123,3.124-3.123,8.188,0,11.312l24,24c3.124,3.123,8.188,3.123,11.312,0l96-96
			c3.123-3.124,3.123-8.188,0-11.312l-6.344-6.344l22.344-22.344c0.337-0.409,0.632-0.852,0.88-1.32
			c46.242,40.776,116.785,36.346,157.561-9.896c22.502-25.518,32.138-59.904,26.175-93.4l21.6-21.6c2.667,0.8,5.509,0.8,8.176,0
			l54.256,54.256c3.178,3.07,8.242,2.982,11.312-0.196C480.613,162.332,480.613,157.416,477.619,154.316z M80.003,356.62
			l-12.688-12.688l84.688-84.688l12.688,12.688L80.003,356.62z M272.003,55.932c43.674,0.086,81.797,29.614,92.8,71.88
			l-59.304,59.32c-3.874-2.995-8.949-3.953-13.648-2.576l-20.16-35.296c11.825-13.045,10.836-33.206-2.209-45.031
			c-13.045-11.825-33.206-10.836-45.031,2.209c-0.688,0.759-1.34,1.552-1.952,2.374l-24.272-18.2
			C216.429,68.645,243.474,55.932,272.003,55.932z M264.003,127.932c0,8.837-7.163,16-16,16c-8.837,0-16-7.163-16-16s7.163-16,16-16
			C256.839,111.932,264.003,119.096,264.003,127.932z M272.003,247.932c-52.922,0.096-95.902-42.728-95.997-95.65
			c-0.031-17.052,4.489-33.804,13.094-48.526l27.28,20.456c-2.298,17.278,9.846,33.147,27.124,35.445
			c4.99,0.664,10.066,0.124,14.804-1.573l22.04,38.568c-1.819,8.593,3.672,17.034,12.265,18.853
			c0.725,0.153,1.459,0.256,2.199,0.307c0.048,0,0.08,0.04,0.128,0.048c0.353,0.048,0.708,0.072,1.064,0.072
			c7.346-0.022,13.732-5.043,15.488-12.176l56.288-56.288c0.064,1.488,0.224,2.96,0.224,4.464
			C367.945,204.928,324.998,247.875,272.003,247.932z"/>
	</g>
</g>
<g>
</g>
<g>
</g>
<g>
</g>
<g>
</g>
<g>
</g>
<g>
</g>
<g>
</g>
<g>
</g>
<g>
</g>
<g>
</g>
<g>
</g>
<g>
</g>
<g>
</g>
<g>
</g>
<g>
</g>
</svg>
