<svg id="_x33_0" enable-background="new 0 0 64 64" height="512" viewBox="0 0 64 64" width="512" xmlns="http://www.w3.org/2000/svg"><g><circle cx="28" cy="14" r="1"/><circle cx="36" cy="14" r="1"/><path d="m32 23c2.757 0 5-2.243 5-5v-1h-10v1c0 2.757 2.243 5 5 5zm2.829-4c-.413 1.164-1.525 2-2.829 2s-2.416-.836-2.829-2z"/><path d="m61.102 38.752c-.125-.999-.978-1.752-1.985-1.752h-.117v-1h1c1.654 0 3-1.346 3-3s-1.346-3-3-3h-1c0-1.103-.897-2-2-2h-2c-1.103 0-2 .897-2 2h-.198c-2.095 0-3.983 1.322-4.699 3.291l-.774 2.129-.994-1.988c-.995-1.99-2.77-3.457-4.894-4.084 2.272-2.377 3.559-5.512 3.559-8.868v-8.48c0-6.065-4.935-11-11-11h-4c-6.065 0-11 4.935-11 11v8.48c0 3.316 1.295 6.484 3.562 8.867-2.126.627-3.901 2.094-4.897 4.085l-.994 1.988-.774-2.129c-.716-1.969-2.604-3.291-4.699-3.291h-.198c0-1.103-.897-2-2-2h-2c-1.103 0-2 .897-2 2h-1c-1.654 0-3 1.346-3 3s1.346 3 3 3h1v1h-.117c-1.006 0-1.859.753-1.984 1.752l-1.877 15.006c-.015.119-.022.239-.022.359 0 1.59 1.293 2.883 2.883 2.883h8.117c1.589 0 2.883-1.293 2.883-2.883 0-.12-.007-.24-.022-.357l-.641-5.128c.72.237 1.475.368 2.232.368 1.91 0 3.706-.744 5.057-2.095l.539-.538.871 5.225c-3.182 2.666-5.551 6.145-6.867 10.092l-.44 1.316h32.775l-.439-1.316c-1.308-3.924-3.658-7.385-6.867-10.09l.871-5.227.539.539c1.351 1.35 3.147 2.094 5.057 2.094.757 0 1.512-.131 2.233-.368l-.641 5.125c-.015.119-.022.239-.022.359-.001 1.591 1.293 2.884 2.882 2.884h8.117c1.59 0 2.883-1.293 2.883-2.883 0-.12-.007-.24-.022-.357zm-6.102.248v11.538l-3.851 3.273 1.851-14.811zm1.006 13.307 3.231 2.693h-6.4zm4.966 1.535-3.972-3.31v-11.532h2.117zm-.972-21.842c.551 0 1 .448 1 1s-.449 1-1 1h-1v-2zm-3-2v7h-2v-7zm-36-18c0-4.963 4.038-9 9-9h4c4.962 0 9 4.037 9 9v8.48c0 3.223-1.404 6.206-3.846 8.278l-2.33-.582-.563-2.252c2.819-1.522 4.739-4.502 4.739-7.924v-4.929c0-1.279-.404-2.494-1.143-3.513l.851-.851-1.415-1.414-.964.965c-.479.478-1.116.742-1.793.742-1.398 0-2.536-1.138-2.536-2.535v-1.465h-2v1.465c0 .833.242 1.604.635 2.275-.34.164-.711.26-1.099.26-1.398 0-2.536-1.138-2.536-2.535v-1.465h-2v1.465c0 .307.032.607.091.897l-.072.014c-2.329.466-4.019 2.528-4.019 4.903v5.721c0 3.422 1.92 6.402 4.738 7.924l-.646 2.583.966.966c.599.597.942 1.426.942 2.272 0 1.077-.535 2.076-1.431 2.674l-.569.379-.219-.146c-1.115-.744-1.781-1.988-1.781-3.33l-.005-2.406-.335-.298c-2.326-2.063-3.66-5.029-3.66-8.138zm6.964-2.773c.83 1.071 2.115 1.773 3.572 1.773.905 0 1.769-.264 2.505-.754.717.474 1.573.754 2.495.754.576 0 1.133-.114 1.654-.318.517.688.81 1.513.81 2.389v4.929c0 3.859-3.14 7-7 7s-7-3.141-7-7v-5.721c0-1.426 1.014-2.663 2.411-2.942zm1.509 18.832-.166-.165.306-1.225c.762.21 1.56.331 2.387.331s1.625-.121 2.386-.331l.614 2.454v2.877c0 .552-.449 1-1 1h-3.154c.1-.406.154-.826.154-1.255 0-1.373-.557-2.716-1.527-3.686zm.067 15.174c.873.292 1.46 1.106 1.46 2.027 0 .33-.078.66-.226.955l-.281.563-.033-.011c-.873-.292-1.46-1.106-1.46-2.027 0-.33.078-.66.226-.955l.281-.563zm-.766-3.018-.281.563-.033-.011c-.873-.292-1.46-1.106-1.46-2.027 0-.33.078-.66.226-.955l.281-.563.033.011c.873.292 1.46 1.106 1.46 2.027 0 .33-.078.66-.226.955zm-9.319-5.888c.727-1.453 2.008-2.535 3.545-3.025v.022c0 2.01.999 3.876 2.672 4.992l.039.026-.274.548c-.286.572-.437 1.212-.437 1.85 0 1.699 1.038 3.199 2.599 3.826l-.162.324c-.286.572-.437 1.212-.437 1.85 0 1.783 1.136 3.359 2.828 3.924l1.679.559 1.057-2.113c.285-.572.436-1.212.436-1.85 0-1.699-1.038-3.199-2.599-3.826l.162-.324c.286-.572.437-1.212.437-1.85 0-1.439-.748-2.733-1.922-3.48.291-.237.549-.503.779-.791.048.002.095.011.143.011h4c1.654 0 3-1.346 3-3v-1.72l3.634.908c1.702.426 3.127 1.57 3.912 3.139l1.674 3.348-3.286 1.408c.039-.694.066-1.389.066-2.083h-2c0 1.936-.161 3.886-.479 5.795l-1.368 8.205h-14.306l-1.368-8.205c-.318-1.909-.479-3.859-.479-5.795h-2c0 .694.027 1.389.066 2.083l-3.286-1.408zm-11.461 17.98 3.168 2.693h-6.4zm1.006-1.769v-11.538h2l1.851 14.812zm-5-16.538c-.551 0-1-.448-1-1s.449-1 1-1h1v2zm3-4h2v7h-2zm-2.117 9h2.117v11.532l-3.972 3.31zm15.212 6.491c-.974.973-2.267 1.509-3.643 1.509-.795 0-1.592-.188-2.304-.544l-.214-.107-.95-7.597c-.125-.999-.978-1.752-1.984-1.752v-5h.198c1.257 0 2.39.794 2.819 1.975l3.042 8.367 1.88-.684-.564-1.552 2.883 1.235c.07.596.15 1.191.248 1.781l.137.82zm25.467 15.509h-27.124c1.273-3.095 3.293-5.822 5.929-8h15.269c2.614 2.146 4.645 4.885 5.926 8zm4.29-14.544c-.712.356-1.509.544-2.304.544-1.375 0-2.669-.536-3.643-1.509l-1.549-1.549.137-.82c.098-.59.178-1.185.248-1.781l2.883-1.235-.564 1.552 1.88.684 3.042-8.367c.43-1.181 1.563-1.975 2.82-1.975h.198v5c-1.006 0-1.859.753-1.984 1.752l-.95 7.597z"/></g></svg>